<?xml version="1.0" encoding="UTF-8"?>
<svg id="uuid-19018540-5ffd-4f51-8e7f-f98a06a49630" data-name="Layer 2" xmlns="http://www.w3.org/2000/svg" viewBox="0 0 293.06 293.06">
  <defs>
    <style>
      .uuid-ae00d198-16e8-4725-8e35-681d212e4492 {
        fill: #7bacd9;
      }

      .uuid-07c97f91-9305-4df7-b37c-1654e3b84a25 {
        fill: #15294b;
      }
    </style>
  </defs>
  <g id="uuid-f557d3a1-aad0-448f-83f7-e90736a369d6" data-name="uuid-9eeb3fc1-0da8-4552-b010-01452a0fc16d">
    <path class="uuid-07c97f91-9305-4df7-b37c-1654e3b84a25" d="M146.53,0C65.6,0,0,65.6,0,146.53s65.6,146.53,146.53,146.53,146.53-65.6,146.53-146.53S227.45,0,146.53,0ZM146.53,279.05c-73.19,0-132.52-59.33-132.52-132.52S73.34,14.01,146.53,14.01s132.52,59.33,132.52,132.52-59.33,132.52-132.52,132.52h0Z"/>
    <path class="uuid-ae00d198-16e8-4725-8e35-681d212e4492" d="M146.53,22.86c-68.3,0-123.66,55.37-123.66,123.66s55.37,123.66,123.66,123.66,123.66-55.37,123.66-123.66S214.83,22.86,146.53,22.86ZM146.53,252.97c-58.79,0-106.44-47.66-106.44-106.44s47.66-106.44,106.44-106.44,106.44,47.66,106.44,106.44-47.66,106.44-106.44,106.44Z"/>
    <path class="uuid-07c97f91-9305-4df7-b37c-1654e3b84a25" d="M226.97,142.81c-.02-.35-.05-.7-.07-1.05-.05-.89-.11-1.78-.19-2.66-.03-.37-.08-.74-.12-1.11-.09-.87-.19-1.74-.31-2.6-.05-.34-.1-.67-.15-1-.14-.91-.29-1.82-.46-2.73-.05-.27-.1-.54-.15-.8-.2-1-.41-1.99-.65-2.98-.04-.17-.08-.33-.12-.5-.28-1.15-.58-2.28-.91-3.41v-.03c-2.87-9.8-7.54-18.83-13.64-26.7-4.16,4.16-8.32,8.32-12.48,12.48,3.24,4.5,5.9,9.44,7.88,14.71.32.84.61,1.69.89,2.55h0c.27.84.53,1.68.77,2.54.05.19.1.38.15.57.18.67.35,1.34.51,2.01.06.26.11.51.17.77.14.61.26,1.23.38,1.85.06.29.11.59.16.88.1.59.2,1.18.29,1.78.05.31.09.63.13.94.08.59.14,1.18.2,1.78.03.32.07.63.1.95.05.63.09,1.26.13,1.9.02.28.04.56.05.84.04.91.06,1.83.06,2.76,0,34.82-28.23,63.05-63.05,63.05s-63.05-28.23-63.05-63.05c0-1.13.04-2.25.1-3.37.01-.28.03-.56.05-.84.07-1.06.16-2.12.28-3.17,0-.05,0-.09.01-.14.13-1.11.3-2.22.49-3.31.04-.23.08-.45.12-.68.19-1.05.41-2.09.65-3.11,0-.04.02-.08.03-.12.26-1.1.56-2.18.88-3.26.05-.17.1-.34.16-.51.31-1.02.65-2.02,1.01-3.01.02-.05.03-.1.05-.15.39-1.05.8-2.09,1.24-3.12.06-.15.13-.3.2-.45.4-.91.82-1.82,1.26-2.7,1.54-3.1,3.32-6.07,5.33-8.86l-12.48-12.48c-3.36,4.34-6.29,9.03-8.73,14.01h0c-.42.86-.83,1.73-1.22,2.62-.03.06-.05.12-.08.18-.41.92-.8,1.86-1.18,2.8-.02.05-.04.1-.06.15-.38.96-.74,1.93-1.08,2.91-.04.13-.09.26-.13.38-.29.85-.57,1.71-.84,2.58-.05.16-.1.31-.15.47-.29.96-.56,1.92-.81,2.89-.04.16-.08.32-.12.48-.21.83-.41,1.67-.59,2.51-.05.22-.1.44-.14.66-.2.97-.39,1.95-.56,2.93-.03.15-.05.3-.07.45-.14.85-.27,1.71-.38,2.58-.03.25-.07.5-.1.76-.12.99-.23,1.99-.32,3,0,.1-.01.2-.02.3-.08.92-.13,1.84-.18,2.77-.01.27-.02.53-.03.8-.04,1.02-.07,2.05-.07,3.08,0,18.07,5.95,34.75,16,48.18,1.55,2.07,3.19,4.06,4.92,5.96.87.95,1.76,1.89,2.67,2.8,3.64,3.64,7.63,6.94,11.92,9.83,4.28,2.89,8.86,5.39,13.68,7.42,4.82,2.04,9.87,3.62,15.12,4.69,5.24,1.07,10.67,1.64,16.23,1.64s10.99-.56,16.23-1.64c5.24-1.07,10.3-2.65,15.12-4.69,4.82-2.04,9.39-4.53,13.68-7.42s8.27-6.19,11.92-9.83c.91-.91,1.8-1.84,2.67-2.8,1.73-1.91,3.38-3.9,4.92-5.96,10.05-13.44,16-30.11,16-48.18,0-1.25-.03-2.48-.09-3.71l-.03-.06ZM107,97.41c6.75-5.44,14.64-9.52,23.26-11.82.07-.02.14-.03.2-.05.74-.19,1.49-.38,2.24-.54.23-.05.47-.1.7-.15.59-.13,1.19-.24,1.79-.35.2-.04.4-.07.6-.1v77.75h21.46v-77.74c.69.12,1.38.25,2.06.39.05.01.1.02.16.03.82.17,1.63.36,2.43.56h.02c1.63.41,3.24.89,4.81,1.42,7.08,2.4,13.61,6.01,19.31,10.61,4.14-4.14,8.27-8.27,12.41-12.41-6.24-5.27-13.29-9.61-20.94-12.8h0c-.35-.15-.72-.28-1.07-.42-.73-.29-1.46-.59-2.2-.86-.45-.16-.9-.31-1.35-.47-.73-.25-1.46-.5-2.21-.74-.46-.15-.93-.28-1.4-.42-.74-.22-1.48-.43-2.22-.62-.48-.13-.96-.25-1.45-.36-.75-.18-1.5-.35-2.25-.51-.49-.1-.98-.21-1.48-.3-.76-.15-1.53-.28-2.29-.41-.49-.08-.99-.16-1.48-.24-.79-.11-1.59-.21-2.39-.3-.48-.05-.96-.12-1.44-.16-.87-.08-1.75-.14-2.63-.2-.41-.03-.83-.06-1.24-.08-1.3-.06-2.6-.1-3.91-.1s-2.6.04-3.89.1c-.39.02-.77.05-1.16.08-.9.06-1.81.12-2.7.2-.43.04-.86.1-1.29.15-.85.09-1.69.19-2.53.32-.43.06-.85.13-1.28.2-.84.14-1.68.28-2.51.44-.4.08-.81.16-1.21.25-.85.18-1.7.37-2.54.58-.37.09-.74.18-1.11.28-.87.23-1.74.47-2.6.72-.34.1-.67.2-1,.3-.89.28-1.77.57-2.65.88-.3.1-.6.2-.89.31-.91.33-1.8.68-2.7,1.04-.2.08-.4.15-.59.23h0c-7.78,3.21-14.95,7.59-21.28,12.94l12.41,12.41.02-.04Z"/>
  </g>
</svg>