<?xml version="1.0" encoding="UTF-8"?>
<svg id="uuid-396095cf-cf9c-46e2-889b-e0d98997290e" data-name="Layer 2" xmlns="http://www.w3.org/2000/svg" viewBox="0 0 189.64 199.57">
  <defs>
    <style>
      .uuid-1aab4962-31cd-4271-9533-c6a74851bf35 {
        fill: #15294b;
      }
    </style>
  </defs>
  <g id="uuid-c36ad69f-aebe-4ff7-8800-49adc2b78a81" data-name="Layer 1">
    <path class="uuid-1aab4962-31cd-4271-9533-c6a74851bf35" d="M147.79,115.67c-3.12,1.79-6.27.93-9.64.91,1.28-1.28,2.98-2.04,4.32-3.26.55-.5,3.31-3.61,3.38-4.06.1-.67-3.33-1.8-3.78-1.54-.1.06-.94,1.51-1.25,1.87-4.28,4.83-10.1,5.65-16.03,7.29l3.4-5.66,6.4-4c-2.7-.26-5.39-.57-8.11-.45-5.31,8.08-15.03,12.27-21.46,19.31-1.53,1.68-2.72,3.71-4.3,5.35-.16-4.22.94-8.53,2.62-12.38,3.36-7.68,9.43-12.45,10.97-21.42.68-3.99.02-8.05.75-12.02.58-3.14,2.26-5.52,3.49-8.4l-3.87,2.97c-.79.72-1.38,1.33-1.84,2.32-1.69,3.7-1.96,10.41-3.36,14.76-1.69,5.26-4.64,9.21-9.51,11.88-2.83-6.47-2.65-16.46-.15-23.03,3.56-9.34,13.55-11.35,21.56-14.98.29-.13.7-.2.73-.61-1.23-.24-2.11-2.22-3.41-2.26-.68-.02-3.23,1.44-3.72,1.06,1.68-1.9,2.69-4.73.74-6.82-3.26,4.8-7.44,9.63-12.92,11.88,2.07-2.93,4.26-7.45,3.56-11.13-.25-1.3-2.19-1.31-3.26-1.64-.06,6.87-5.14,11.85-8.08,17.62-.4.29-1.07,2.22-1.57,1.99-.39-.18-3.96-5.87-4.91-6.97-1.86-2.14-4.2-3.76-6.09-5.8-2.03-2.18-3.49-4.82-5.34-7.13-2.75,3.71.12,7.32,2.82,9.95.04.23-.27.18-.45.15-2.6-.4-10.37-3.36-13.04-5.2,0,.36-.03.72-.09,1.09-.08.51-.12,1.02-.1,1.53.02.47.15.94.3,1.4.05.14.1.28.15.42,5.99,3.84,13.42,4.56,18.86,10.72,5.91,6.69,6.06,19.69,3.87,27.92-.1.39.02.77-.46,1.03-5.13-3.41-8.6-8.71-10.39-14.56-1.4-4.56-1.54-12.15-4.74-15.46-.29-.3-3.07-2.57-3.29-2.66-1.18-.52.69,2.21.8,2.47,3.61,8.11,1.64,15.08,4.69,22.94,2,5.14,5.66,9.24,8.27,14.02,2.61,4.79,3.94,9.42,3.92,14.94-2.82-4.29-6.01-7.73-9.96-10.98-4.97-4.09-11.93-7.97-15.55-13.28-.23-.33-.29-.96-.34-.99-.44-.3-7.14.23-8.32,0,1.53,1.86,4.82,2.77,6.43,4.26,1.38,1.28,2.4,4.05,3.67,5.54-4.02-.42-8.41-1.59-11.86-3.74-1.19-.74-5.7-5.14-6.1-5.16-.27-.01-2.29.68-2.72.85-.2.08-.63-.04-.41.47.13.31,1.98,2.55,2.37,2.98,1.57,1.77,2.93,2.55,4.68,3.92.24.19.55,0,.37.68-3.39.32-6.27.48-9.49-.89-.25,1.8-2.73,2.52-.52,3.92,3.28,2.07,10.42-.11,14.32-.09,12.81.08,25.39,11.13,29.49,22.83,3.75,10.72,2.08,27.59-1.33,38.33-.45,1.4-.9,2.66-1.41,3.8l25.55.42c.15-.05.3-.08.45-.13-.15.05-.3.08-.45.13h.69c-3.53-6.83-4.74-17.75-5.01-23.6-.56-12.03.67-21.2,8.77-30.47,7.12-8.15,15.33-11.49,26.16-11,3.97.18,8.94,1.95,12.28-1.03l-2.22-3.14Z"/>
    <path class="uuid-1aab4962-31cd-4271-9533-c6a74851bf35" d="M81.55,184.48c-1.8,3.96-4.3,6.33-9.61,7.47-6.01,1.29-13.59,1.8-19.81,2.47-13.53,1.45-27.14,2.4-40.7,3.57l-4.01.59c4.76.6,9.62.2,14.42.29,48.65.91,96.9.99,145.56,0,5.01-.1,10.02.22,15.01-.29l-1.03-.3c-13.77-1.14-27.56-2.16-41.3-3.57-6.67-.68-23.39-1.5-28.36-4.92-1.55-1.07-2.85-2.78-3.93-4.88"/>
    <path class="uuid-1aab4962-31cd-4271-9533-c6a74851bf35" d="M174.72,61.29c1.08-8.87-5.77-15.2-14.02-16.5-.33-2.95-.57-5.55-1.7-8.33-4.61-11.38-20.55-13.92-29.17-5.44-.36-.39,2.65-3.48,3.12-3.86,4.54-3.58,9.94-3.41,15.29-2.09-1.13-14.58-17.55-23.59-30.39-15.98-5.92,3.5-8.23,8.28-10.01,14.66-.13.48.32.88-.6.73v-4.61c0-.67,1.16-3.93,1.52-4.72.71-1.53,3.24-4.13,2.81-5.54-.46-1.53-4.43-5.1-5.84-6.06-10.57-7.18-25.84-3.05-31.32,8.43-11.71-11.08-32.25-3.56-33.85,12.5-5.87,1.07-10.88,2.77-14.72,7.57-2.76,3.44-5.13,9.55-3.69,13.83,4.71-.72,3.25-1.41,4.11-4.79,2.12-8.33,9.53-12.92,17.99-11.87-.1-8.59,4.81-14.77,13.07-16.79,4.23-1.04,8.25-.8,12.2,1.18,2.22,1.12,3.89,2.98,5.93,4.32,3.44-13.28,22.31-18.48,31.2-7.43-1.97-.74-3.74-1.79-5.79-2.38-11.77-3.41-24.04,3.27-24.52,16.05-1.95-2.87-3.74-5.28-6.93-6.89-9.38-4.71-22.46.7-22.79,11.81-.05,1.6,1.82,2.1,2.8,3.13.42.44,2.56,3.46,2.26,3.83-5.81-5.67-15.59-5.34-20.21,1.63-1.01,1.52-3.04,6.66-1.31,7.86.76.52,2.08-.12,1.91.91-8.22.7-15.41,6.12-15.79,14.82-10.94,1.41-17.95,10.87-15.96,21.83,1.47,8.08,9.73,14.87,18.08,13.56.26.22-1.87,2.9-2.13,3.36-2.93,5.14-2.88,11.41.95,16.09,7.22,8.81,21.22,4.4,22.2-6.84-.08-.45-2.29-.63-2.96-.82-4.94-1.37-10.82-4.1-11.82-9.72,2.96,3.09,6.41,6.03,10.88,6.5,6.84.72,11.94-1.37,15.87-6.94.36-.51,1.35-2.71,1.48-2.83,1.03-.88.29,2.66.2,3.03-.33,1.46-.93,2.44-1.4,3.8,10.85,4.71,22.97-5.99,16.59-17.03-2.03-3.5-3.39-6.46-5.25-9.91-4.86-9.02-18.41-10.72-24.36-1.98-1.5,2.2-2.21,4.77-3.17,7.23-1.79-4.55.31-9.73,3.87-12.77,4.94-4.21,12.28-4.76,18.08-2.05,1.55.72,3.62,2.76,4.82,3.2.5.18.51-.48.67-.89.14-.8.47-1.53.66-2.34.12-.52.18-1.04.21-1.57.03-.5.12-1.08.02-1.56,0-.03,0-.05,0-.08-.05-.18-.05-.37,0-.53-.03-.56,0-1.18.05-1.9,7.13,9.27,12.81-1.53,9.51-8.91l3.69-.02c.94,4.01,1.34,9.82,6.59,10.39,1.17.13,2.7-.5,3.49-.23.32.11,1.32,1.69,2,2.17,3.1,2.16,7.78.6,9.91-2.23.32-.43,1.07-1.43,1.06-1.91,0-.29-2.81-3.63-3.32-4.69-.96-2.02-1.29-4.23-1.43-6.44.79-.16.51.2.74.59,3.42,5.82,6.31,10.55,13.97,11.3,5.07.49,6.01-.97,9.06-4.45v4.31c0,.49.8,2.79,1.05,3.41,1.38,3.45,4.09,5.68,7.7,6.55,1.26-3.02,2.47-5.62,5.08-7.73,9.89-8,26.1-.65,24.77,12.58-.04.44-.09,1.95-.85,1.67-.03-5.66-4.08-11.42-9.43-13.3-5.94-2.09-13.34.18-16.09,6.06-.47,1.01-.89,3.4-1.38,3.97-.42.49-3.45,1.54-4.4,2.14-3.87,2.44-6.68,7.44-7.03,11.98-.74,9.59,8.16,18.43,17.82,15.59-.57-1.29-3.71-7.84-1.93-8.61,4.67,12.82,21.2,15.04,29.56,4.46-1.88,6.18-8,9.88-14.26,10.26.16,5.7,5.14,11.22,10.85,11.72,10.86.94,17.48-10.23,12.97-19.81-.72-1.52-2.08-2.72-2.73-4.25h4.31c3.24,0,8.18-3.36,10.26-5.79,9.02-10.57,2.8-27.11-10.67-29.6ZM59.12,82.41c-.86-.15-1.25-.58-2.23-.62-1.14-.04-1.82.55-2.82.47,1.61-2.26,3.55-2.18,5.05.14ZM23.17,87.02c.91-1.3,2.58-.81,3.27.44l-3.27-.44ZM26.01,74.7c-.45.07-1.93,1.11-1.65.14.8-2.75,5.49-1.86,5.34,1.03-1.31-.77-2.04-1.44-3.69-1.17ZM38.02,56.42c-3.99-1.54-9.89-1.11-12.76,2.38-2.54,3.08-.33,2.36,1.31,4.32.65.78,1.23,1.93,1.36,2.95-2.71-2.99-6.62-3.73-9.8-.89-.22-2.08,2.18-2.94,2.93-4.05.54-.79.83-2.49,1.46-3.59,4.84-8.35,20.68-6.19,22.04,4.07-1.94-1.99-3.86-4.16-6.54-5.2ZM77.2,39.23c-4.18-.35-6.16,2.19-6.8,5.89-.29,1.66-.85-.75-.89-1.47-.44-7.34,8.83-8.86,11.6-2.84-1.46-.62-2.19-1.44-3.91-1.58ZM84.38,19.13c1.39-6.89,10.34-9.5,14.85-3.87-5.75-2.38-11.21-1.25-14.85,3.87ZM123.29,44.97l-1.42-4.96c-1.95-2.69-4.52-4.02-7.9-3.62-1.03.12-1.89.75-2.85.71,5.2-7.67,16.18.07,12.18,7.87ZM136.29,46.24c-1,.17-1.74.9-2.45,1.11-1.33.4.74-2.22,1.56-2.6,3.15-1.48,6.46.85,6.91,4.09-1.74-1.88-3.28-3.06-6.02-2.6ZM166.37,85.38l-1.35-2.66c-2-1.96-3.36-1.4-5.67-.94-1.2.24.55-1.46.97-1.7,3.57-2.1,6.91,1.6,6.04,5.3ZM172.91,65.48c-1.7-1.28-3.18-1.74-5.21-.9-.47.2-1.99,1.41-2.22,1.2,1.26-3.86,4.54-1.95,2.73-7.03-2.6-7.29-13.1-8.66-17.73-2.47.08-2.65,2.72-5.2,5.21-6.08,5.98-2.11,12.87,1.36,14.41,7.56.32,1.28.3,4.63.82,5.27.5.62,2.25,1.14,1.99,2.46Z"/>
  </g>
</svg>