<?xml version="1.0" encoding="UTF-8"?>
<svg id="uuid-9eeb3fc1-0da8-4552-b010-01452a0fc16d" xmlns="http://www.w3.org/2000/svg" version="1.1" viewBox="0 0 293 293">
  <!-- Generator: Adobe Illustrator 29.8.4, SVG Export Plug-In . SVG Version: 2.1.1 Build 6)  -->
  <defs>
    <style>
      .st0 {
        fill: #7bacd9;
      }

      .st1 {
        fill: #15294b;
      }
    </style>
  </defs>
  <path class="st1" d="M146.5,0C65.6,0,0,65.6,0,146.5s65.6,146.5,146.5,146.5,146.5-65.6,146.5-146.5S227.4,0,146.5,0ZM146.5,279c-73.2,0-132.5-59.3-132.5-132.5S73.3,14,146.5,14s132.5,59.3,132.5,132.5-59.3,132.5-132.5,132.5h0Z"/>
  <path class="st0" d="M146.5,22.9c-68.3,0-123.7,55.4-123.7,123.7s55.4,123.7,123.7,123.7,123.7-55.4,123.7-123.7S214.8,22.9,146.5,22.9ZM146.5,253c-58.8,0-106.4-47.7-106.4-106.4s47.7-106.4,106.4-106.4,106.4,47.7,106.4,106.4-47.7,106.4-106.4,106.4Z"/>
  <path class="st1" d="M227,142.8c0-.4,0-.7,0-1.1,0-.9-.1-1.8-.2-2.7,0-.4,0-.7-.1-1.1,0-.9-.2-1.7-.3-2.6,0-.3-.1-.7-.1-1-.1-.9-.3-1.8-.5-2.7,0-.3-.1-.5-.1-.8-.2-1-.4-2-.6-3,0-.2,0-.3-.1-.5-.3-1.2-.6-2.3-.9-3.4h0c-2.9-9.8-7.5-18.9-13.6-26.7-4.2,4.2-8.3,8.3-12.5,12.5,3.2,4.5,5.9,9.4,7.9,14.7.3.8.6,1.7.9,2.6h0c.3.8.5,1.7.8,2.5,0,.2.1.4.1.6.2.7.4,1.3.5,2,0,.3.1.5.2.8.1.6.3,1.2.4,1.9,0,.3.1.6.2.9.1.6.2,1.2.3,1.8,0,.3,0,.6.1.9,0,.6.1,1.2.2,1.8,0,.3,0,.6.1.9,0,.6,0,1.3.1,1.9,0,.3,0,.6,0,.8,0,.9,0,1.8,0,2.8,0,34.8-28.2,63.1-63.1,63.1s-63.1-28.2-63.1-63.1,0-2.2,0-3.4c0-.3,0-.6,0-.8,0-1.1.2-2.1.3-3.2,0,0,0,0,0-.1.1-1.1.3-2.2.5-3.3,0-.2,0-.4.1-.7.2-1.1.4-2.1.7-3.1,0,0,0,0,0-.1.3-1.1.6-2.2.9-3.3,0-.2,0-.3.2-.5.3-1,.7-2,1-3,0,0,0,0,0-.2.4-1.1.8-2.1,1.2-3.1,0-.2.1-.3.2-.4.4-.9.8-1.8,1.3-2.7,1.5-3.1,3.3-6.1,5.3-8.9l-12.5-12.5c-3.4,4.3-6.3,9-8.7,14h0c-.4.9-.8,1.7-1.2,2.6,0,0,0,.1,0,.2-.4.9-.8,1.9-1.2,2.8,0,0,0,0,0,.2-.4,1-.7,1.9-1.1,2.9,0,.1,0,.3-.1.4-.3.8-.6,1.7-.8,2.6,0,.2,0,.3-.2.5-.3,1-.6,1.9-.8,2.9,0,.2,0,.3-.1.5-.2.8-.4,1.7-.6,2.5,0,.2,0,.4-.1.7-.2,1-.4,1.9-.6,2.9,0,.1,0,.3,0,.4-.1.9-.3,1.7-.4,2.6,0,.2,0,.5,0,.8-.1,1-.2,2-.3,3,0,.1,0,.2,0,.3,0,.9-.1,1.8-.2,2.8,0,.3,0,.5,0,.8,0,1,0,2.1,0,3.1,0,18.1,5.9,34.8,16,48.2,1.6,2.1,3.2,4.1,4.9,6,.9.9,1.8,1.9,2.7,2.8,3.6,3.6,7.6,6.9,11.9,9.8,4.3,2.9,8.9,5.4,13.7,7.4,4.8,2,9.9,3.6,15.1,4.7,5.2,1.1,10.7,1.6,16.2,1.6s11-.6,16.2-1.6c5.2-1.1,10.3-2.6,15.1-4.7,4.8-2,9.4-4.5,13.7-7.4s8.3-6.2,11.9-9.8c.9-.9,1.8-1.8,2.7-2.8,1.7-1.9,3.4-3.9,4.9-6,10.1-13.4,16-30.1,16-48.2s0-2.5,0-3.7h0ZM107,97.4c6.8-5.4,14.6-9.5,23.3-11.8,0,0,.1,0,.2,0,.7-.2,1.5-.4,2.2-.5.2,0,.5,0,.7-.2.6-.1,1.2-.2,1.8-.3.2,0,.4,0,.6,0v77.7h21.5v-77.7c.7.1,1.4.2,2.1.4,0,0,.1,0,.2,0,.8.2,1.6.4,2.4.6h0c1.6.4,3.2.9,4.8,1.4,7.1,2.4,13.6,6,19.3,10.6,4.1-4.1,8.3-8.3,12.4-12.4-6.2-5.3-13.3-9.6-20.9-12.8h0c-.4-.2-.7-.3-1.1-.4-.7-.3-1.5-.6-2.2-.9-.4-.2-.9-.3-1.4-.5-.7-.2-1.5-.5-2.2-.7-.5-.2-.9-.3-1.4-.4-.7-.2-1.5-.4-2.2-.6-.5-.1-1-.2-1.4-.4-.8-.2-1.5-.3-2.2-.5-.5,0-1-.2-1.5-.3-.8-.2-1.5-.3-2.3-.4-.5,0-1-.2-1.5-.2-.8-.1-1.6-.2-2.4-.3-.5,0-1-.1-1.4-.2-.9,0-1.8-.1-2.6-.2-.4,0-.8,0-1.2,0-1.3,0-2.6,0-3.9,0s-2.6,0-3.9,0c-.4,0-.8,0-1.2,0-.9,0-1.8.1-2.7.2-.4,0-.9,0-1.3.2-.9,0-1.7.2-2.5.3-.4,0-.9.1-1.3.2-.8.1-1.7.3-2.5.4-.4,0-.8.2-1.2.2-.9.2-1.7.4-2.5.6-.4,0-.7.2-1.1.3-.9.2-1.7.5-2.6.7-.3,0-.7.2-1,.3-.9.3-1.8.6-2.7.9-.3,0-.6.2-.9.3-.9.3-1.8.7-2.7,1-.2,0-.4.2-.6.2h0c-7.8,3.2-14.9,7.6-21.3,12.9l12.4,12.4h0Z"/>
</svg>