<?xml version="1.0" encoding="UTF-8"?>
<svg id="uuid-73bd6c1f-0de2-48ec-9a6c-7f61d05948f9" data-name="Layer 2" xmlns="http://www.w3.org/2000/svg" viewBox="0 0 189.64 199.57">
  <defs>
    <style>
      .uuid-b2df8a92-faac-4860-9f52-d93779a7cf6b {
        fill: #15294b;
      }
    </style>
  </defs>
  <g id="uuid-c6137316-1c06-4267-a4cc-43823fe8a685" data-name="Layer 1">
    <path class="uuid-b2df8a92-faac-4860-9f52-d93779a7cf6b" d="M62.39,106.77s.11.65.34.99c3.61,5.31,10.57,9.19,15.55,13.28,3.95,3.25,7.14,6.69,9.96,10.98.02-5.53-1.31-10.16-3.92-14.94s-6.27-8.87-8.27-14.02c-3.05-7.85-1.08-14.83-4.69-22.94-.12-.26-1.98-2.98-.8-2.47.21.09,2.99,2.36,3.29,2.66,3.2,3.31,3.35,10.9,4.74,15.46,1.79,5.84,5.26,11.15,10.39,14.56.48-.27.35-.65.45-1.03,2.19-8.24,2.03-21.23-3.87-27.92-5.89-6.68-14.13-6.95-20.34-11.75-.5-.39-1.42-1.62-1.79-1.77-.77-.32-.38,1.44-1.15,1.16-1.2-.44-3.27-2.48-4.82-3.2-5.8-2.71-13.14-2.16-18.08,2.05-3.56,3.04-5.66,8.22-3.87,12.77.96-2.45,1.67-5.02,3.17-7.23,5.95-8.74,19.51-7.04,24.36,1.98,1.85,3.44,3.22,6.4,5.25,9.91,6.38,11.04-5.73,21.73-16.59,17.03.47-1.36,1.06-2.34,1.4-3.8.08-.37.83-3.9-.2-3.03-.14.12-1.13,2.32-1.48,2.83-3.93,5.57-9.03,7.65-15.87,6.94-4.47-.47-7.92-3.41-10.88-6.5,1,5.62,6.88,8.35,11.82,9.72.67.19,2.88.37,2.96.81-.98,11.24-14.98,15.65-22.2,6.84-3.83-4.67-3.87-10.95-.95-16.09.26-.46,2.38-3.15,2.13-3.36-8.35,1.31-16.61-5.48-18.08-13.56-1.99-10.96,5.02-20.43,15.96-21.83.38-8.7,7.57-14.12,15.79-14.82.17-1.04-1.15-.39-1.91-.91-1.73-1.19.3-6.33,1.31-7.86,4.61-6.97,14.4-7.3,20.21-1.63.31-.37-1.83-3.39-2.26-3.83-.99-1.03-2.85-1.53-2.8-3.13.34-11.1,13.41-16.52,22.79-11.81,3.19,1.6,4.98,4.01,6.93,6.89.48-12.78,12.75-19.46,24.52-16.05,2.05.59,3.82,1.64,5.79,2.38-8.89-11.05-27.76-5.85-31.2,7.43-2.04-1.34-3.71-3.2-5.93-4.32-3.94-1.98-7.97-2.21-12.2-1.18-8.26,2.02-13.16,8.2-13.07,16.79-8.46-1.06-15.87,3.54-17.99,11.87-.86,3.39.6,4.07-4.11,4.79-1.44-4.28.93-10.39,3.69-13.83,3.84-4.8,8.85-6.49,14.72-7.57,1.6-16.06,22.14-23.58,33.85-12.5,5.47-11.48,20.75-15.62,31.32-8.43,1.41.96,5.38,4.52,5.84,6.06.43,1.41-2.1,4.01-2.81,5.54-.36.79-1.52,4.04-1.52,4.72v4.61c.92.15.46-.25.6-.73,1.78-6.38,4.09-11.16,10.01-14.66,12.84-7.6,29.26,1.41,30.39,15.98-5.35-1.32-10.75-1.49-15.29,2.09-.47.37-3.49,3.46-3.12,3.86,8.62-8.48,24.56-5.93,29.17,5.44,1.13,2.78,1.37,5.38,1.7,8.33,8.25,1.31,15.1,7.63,14.02,16.5,13.48,2.48,19.7,19.03,10.67,29.6-2.07,2.43-7.02,5.79-10.26,5.79h-4.31c.64,1.53,2.01,2.73,2.73,4.25,4.51,9.58-2.11,20.75-12.97,19.81-5.72-.5-10.69-6.02-10.85-11.72,6.26-.38,12.38-4.08,14.26-10.26-8.36,10.59-24.89,8.37-29.56-4.46-1.78.77,1.36,7.32,1.93,8.61-9.67,2.84-18.56-6-17.82-15.59.35-4.54,3.16-9.54,7.03-11.98.95-.6,3.98-1.65,4.4-2.14.49-.56.91-2.96,1.38-3.97,2.75-5.88,10.15-8.15,16.09-6.06,5.35,1.88,9.39,7.64,9.43,13.3.76.28.81-1.23.85-1.67,1.33-13.24-14.88-20.58-24.77-12.58-2.61,2.11-3.81,4.71-5.08,7.73-3.61-.88-6.32-3.11-7.7-6.55-.25-.62-1.05-2.92-1.05-3.41v-4.31c-3.04,3.49-3.98,4.95-9.06,4.45-7.66-.74-10.55-5.48-13.97-11.3-.23-.38.05-.75-.74-.59.14,2.21.47,4.43,1.43,6.44.51,1.06,3.31,4.4,3.32,4.69.01.48-.74,1.48-1.06,1.91-2.13,2.84-6.81,4.39-9.91,2.23-.68-.47-1.69-2.06-2-2.17-.78-.27-2.32.36-3.49.23-5.25-.57-5.65-6.38-6.59-10.39l-3.69.02c3.3,7.38-2.37,18.18-9.51,8.91-.24,2.72.02,4.03,2.1,5.77s10.73,5.11,13.49,5.52c.18.03.49.08.45-.15-2.7-2.62-5.57-6.24-2.82-9.95,1.86,2.31,3.32,4.95,5.34,7.13,1.89,2.03,4.22,3.66,6.09,5.8.96,1.1,4.53,6.79,4.91,6.97.51.23,1.17-1.7,1.57-1.99,2.94-5.77,8.03-10.75,8.08-17.62,1.07.33,3.01.35,3.26,1.64.7,3.68-1.49,8.2-3.56,11.13,5.49-2.24,9.67-7.08,12.92-11.88,1.95,2.09.94,4.93-.74,6.82.48.38,3.04-1.09,3.72-1.06,1.3.04,2.18,2.01,3.41,2.26-.03.41-.43.47-.73.61-8.01,3.64-18.01,5.64-21.56,14.98-2.5,6.56-2.68,16.56.15,23.03,4.87-2.66,7.82-6.62,9.51-11.88,1.4-4.36,1.67-11.06,3.36-14.76.45-.99,1.05-1.61,1.84-2.32l3.87-2.97c-1.22,2.87-2.91,5.26-3.49,8.4-.73,3.98-.07,8.04-.75,12.02-1.54,8.97-7.61,13.73-10.97,21.42-1.68,3.85-2.78,8.16-2.62,12.38,1.58-1.64,2.77-3.67,4.3-5.35,6.43-7.05,16.15-11.24,21.46-19.31,2.72-.12,5.41.19,8.11.45l-6.4,4-3.4,5.66c5.93-1.64,11.75-2.46,16.03-7.29.31-.35,1.16-1.81,1.25-1.87.45-.26,3.88.87,3.78,1.54-.07.44-2.83,3.55-3.38,4.06-1.34,1.22-3.04,1.98-4.32,3.26,3.37.02,6.52.88,9.64-.91l2.22,3.14c-3.34,2.98-8.31,1.21-12.28,1.03-10.83-.49-19.04,2.85-26.16,11-8.1,9.27-9.33,18.44-8.77,30.47.35,7.64,2.32,23.93,8.94,28.49,4.97,3.42,21.68,4.24,28.36,4.92,13.74,1.4,27.53,2.42,41.3,3.57l1.03.3c-4.99.51-10,.19-15.01.29-48.65.99-96.9.91-145.56,0-4.8-.09-9.66.31-14.42-.29l4.01-.59c13.56-1.17,27.16-2.12,40.7-3.57,6.22-.67,13.8-1.18,19.81-2.47,6.82-1.46,9.02-4.96,11.02-11.26,3.41-10.74,5.08-27.61,1.33-38.33-4.1-11.7-16.67-22.75-29.49-22.83-3.9-.02-11.04,2.16-14.32.09-2.22-1.4.27-2.12.52-3.92,3.22,1.37,6.1,1.2,9.49.89.17-.69-.13-.49-.37-.68-1.75-1.37-3.11-2.14-4.68-3.92-.39-.44-2.23-2.67-2.37-2.98-.22-.51.21-.39.41-.47.43-.17,2.45-.86,2.72-.85.4.02,4.91,4.42,6.1,5.16,3.44,2.14,7.84,3.32,11.86,3.74-1.27-1.49-2.28-4.26-3.67-5.54-1.61-1.49-4.9-2.4-6.43-4.26,1.17.23,7.88-.3,8.32,0ZM99.23,15.26c-4.51-5.63-13.46-3.03-14.85,3.87,3.64-5.12,9.1-6.25,14.85-3.87ZM123.29,44.97c4.01-7.8-6.97-15.54-12.18-7.87.96.04,1.82-.59,2.85-.71,3.38-.4,5.95.93,7.9,3.62l1.42,4.96ZM81.1,40.82c-2.77-6.02-12.04-4.51-11.6,2.84.04.71.61,3.13.89,1.47.64-3.7,2.62-6.24,6.8-5.89,1.72.15,2.44.97,3.91,1.58ZM142.31,48.84c-.45-3.24-3.76-5.57-6.91-4.09-.82.39-2.89,3-1.56,2.6.71-.21,1.45-.94,2.45-1.11,2.74-.46,4.28.73,6.02,2.6ZM170.92,63.01c-.52-.64-.5-3.99-.82-5.27-1.54-6.2-8.44-9.67-14.41-7.56-2.49.88-5.13,3.43-5.21,6.08,4.64-6.19,15.14-4.82,17.73,2.47,1.81,5.08-1.47,3.17-2.73,7.03.23.21,1.74-1,2.22-1.2,2.03-.84,3.51-.38,5.21.9.26-1.32-1.49-1.84-1.99-2.46ZM44.56,61.61c-1.36-10.25-17.2-12.42-22.04-4.07-.63,1.09-.93,2.8-1.46,3.59-.76,1.1-3.16,1.97-2.93,4.05,3.18-2.84,7.09-2.1,9.8.89-.13-1.02-.71-2.17-1.36-2.95-1.63-1.96-3.84-1.24-1.31-4.32,2.87-3.49,8.77-3.92,12.76-2.38,2.68,1.03,4.6,3.21,6.54,5.2ZM29.7,75.88c.15-2.89-4.54-3.79-5.34-1.03-.28.97,1.2-.07,1.65-.14,1.66-.26,2.39.4,3.69,1.17ZM166.37,85.38c.87-3.7-2.47-7.4-6.04-5.3-.42.25-2.17,1.94-.97,1.7,2.31-.46,3.67-1.03,5.67.94l1.35,2.66ZM59.12,82.41c-1.5-2.32-3.44-2.41-5.05-.14,1,.08,1.68-.51,2.82-.47.98.03,1.37.47,2.23.62ZM26.44,87.46c-.69-1.25-2.35-1.74-3.27-.44l3.27.44Z"/>
  </g>
</svg>